{
  "accessors": [
    {
      "bufferView": 2,
      "componentType": 5126,
      "count": 6447,
      "max": [
        0.43342700600624084,
        0.4854379892349243,
        0.43017899990081787
      ],
      "min": [
        -0.43342700600624084,
        -0.5021820068359375,
        -0.5378580093383789
      ],
      "type": "VEC3"
    },
    {
      "bufferView": 2,
      "byteOffset": 77364,
      "componentType": 5126,
      "count": 6447,
      "max": [
        0.9989638924598694,
        0.9997559785842896,
        0.9999646544456482
      ],
      "min": [
        -0.9989638924598694,
        -0.9999874830245972,
        -0.9998048543930054
      ],
      "type": "VEC3"
    },
    {
      "bufferView": 1,
      "componentType": 5126,
      "count": 6447,
      "max": [
        0.8352029919624329,
        0.9824920296669006
      ],
      "min": [
        0.015462799929082394,
        0.009999999776482582
      ],
      "type": "VEC2"
    },
    {
      "bufferView": 1,
      "byteOffset": 51576,
      "componentType": 5126,
      "count": 6447,
      "max": [
        0.9637420177459717,
        0.9643499851226807
      ],
      "min": [
        0.03327149897813797,
        0.0377424992620945
      ],
      "type": "VEC2"
    },
    {
      "bufferView": 0,
      "componentType": 5125,
      "count": 36612,
      "type": "SCALAR"
    },
    {
      "bufferView": 2,
      "byteOffset": 154728,
      "componentType": 5126,
      "count": 27408,
      "max": [
        0.42718198895454407,
        0.42371299862861633,
        0.4434640109539032
      ],
      "min": [
        -0.42718198895454407,
        -1.126670002937317,
        -0.4365580081939697
      ],
      "type": "VEC3"
    },
    {
      "bufferView": 2,
      "byteOffset": 483624,
      "componentType": 5126,
      "count": 27408,
      "max": [
        0.9999217391014099,
        0.999980092048645,
        0.9999997615814209
      ],
      "min": [
        -0.9999217391014099,
        -1.0,
        -0.9999862313270569
      ],
      "type": "VEC3"
    },
    {
      "bufferView": 1,
      "byteOffset": 103152,
      "componentType": 5126,
      "count": 27408,
      "max": [
        0.9871280193328857,
        0.9900000095367432
      ],
      "min": [
        0.010497000068426132,
        0.009999999776482582
      ],
      "type": "VEC2"
    },
    {
      "bufferView": 1,
      "byteOffset": 322416,
      "componentType": 5126,
      "count": 27408,
      "max": [
        0.9900000095367432,
        0.9888920187950134
      ],
      "min": [
        0.009999999776482582,
        0.009999999776482582
      ],
      "type": "VEC2"
    },
    {
      "bufferView": 0,
      "byteOffset": 146448,
      "componentType": 5125,
      "count": 156168,
      "type": "SCALAR"
    }
  ],
  "asset": {
    "extras": {
      "author": "Jiovanie Velazquez (https://sketchfab.com/Jiovanie)",
      "license": "CC-BY-NC-4.0 (http://creativecommons.org/licenses/by-nc/4.0/)",
      "source": "https://sketchfab.com/3d-models/doodz-f5e58a45d07a42b0a1cbe2a03403a353",
      "title": "Doodz"
    },
    "generator": "Sketchfab-12.66.0",
    "version": "2.0"
  },
  "bufferViews": [
    {
      "buffer": 0,
      "byteLength": 771120,
      "name": "floatBufferViews",
      "target": 34963
    },
    {
      "buffer": 0,
      "byteLength": 541680,
      "byteOffset": 771120,
      "byteStride": 8,
      "name": "floatBufferViews",
      "target": 34962
    },
    {
      "buffer": 0,
      "byteLength": 812520,
      "byteOffset": 1312800,
      "byteStride": 12,
      "name": "floatBufferViews",
      "target": 34962
    }
  ],
  "buffers": [
    {
      "byteLength": 2125320,
      "uri": "scene.bin"
    }
  ],
  "images": [
    {
      "uri": "textures/Default_baseColor.png"
    }
  ],
  "materials": [
    {
      "name": "Default",
      "pbrMetallicRoughness": {
        "baseColorTexture": {
          "index": 0
        },
        "metallicFactor": 0.0,
        "roughnessFactor": 0.6
      }
    }
  ],
  "meshes": [
    {
      "name": "Material-Default",
      "primitives": [
        {
          "attributes": {
            "NORMAL": 1,
            "POSITION": 0,
            "TEXCOORD_0": 2,
            "TEXCOORD_1": 3
          },
          "indices": 4,
          "material": 0,
          "mode": 4
        }
      ]
    },
    {
      "name": "Material-Default",
      "primitives": [
        {
          "attributes": {
            "NORMAL": 6,
            "POSITION": 5,
            "TEXCOORD_0": 7,
            "TEXCOORD_1": 8
          },
          "indices": 9,
          "material": 0,
          "mode": 4
        }
      ]
    }
  ],
  "nodes": [
    {
      "children": [
        1
      ],
      "matrix": [
        1.0,
        0.0,
        0.0,
        0.0,
        0.0,
        2.220446049250313e-16,
        -1.0,
        0.0,
        0.0,
        1.0,
        2.220446049250313e-16,
        0.0,
        0.0,
        0.0,
        0.0,
        1.0
      ],
      "name": "Sketchfab_model"
    },
    {
      "children": [
        2,
        4,
        7,
        9,
        11,
        13
      ],
      "matrix": [
        1.0,
        0.0,
        0.0,
        0.0,
        0.0,
        -4.371139006309477e-08,
        0.999999999999999,
        0.0,
        0.0,
        -0.999999999999999,
        -4.371139006309477e-08,
        0.0,
        0.0,
        0.0,
        0.0,
        1.0
      ],
      "name": "Collada visual scene group"
    },
    {
      "children": [
        3
      ],
      "matrix": [
        0.7071067811865475,
        0.0,
        0.7071067811865476,
        0.0,
        0.35355339059327373,
        0.8660254037844387,
        -0.3535533905932737,
        0.0,
        -0.6123724356957946,
        0.49999999999999994,
        0.6123724356957945,
        0.0,
        -2.0,
        2.0,
        2.0,
        1.0
      ],
      "name": "Directional_Light"
    },
    {
      "name": "Directional_Light"
    },
    {
      "children": [
        5
      ],
      "name": "3_Point_Beige_01"
    },
    {
      "children": [
        6
      ],
      "name": "Camera_2"
    },
    {
      "name": "Camera-camera250"
    },
    {
      "children": [
        8
      ],
      "matrix": [
        0.8823331211400912,
        0.0,
        -0.47062539597771924,
        0.0,
        -0.055062147809858276,
        0.9931321709118945,
        -0.10323105626890003,
        0.0,
        0.4673932211936223,
        0.11699782519272521,
        0.8762734080653264,
        0.0,
        1.959820032119751,
        0.09049870073795319,
        3.7293100357055664,
        1.0
      ],
      "name": "Camera"
    },
    {
      "name": "Camera-camera004"
    },
    {
      "children": [
        10
      ],
      "name": "Hat"
    },
    {
      "mesh": 0,
      "name": "Material-Default"
    },
    {
      "children": [
        12
      ],
      "name": "Character"
    },
    {
      "mesh": 1,
      "name": "Material-Default"
    },
    {
      "children": [
        14
      ],
      "name": "Render"
    },
    {
      "name": "Render"
    }
  ],
  "samplers": [
    {
      "magFilter": 9729,
      "minFilter": 9987,
      "wrapS": 10497,
      "wrapT": 10497
    }
  ],
  "scene": 0,
  "scenes": [
    {
      "name": "Sketchfab_Scene",
      "nodes": [
        0
      ]
    }
  ],
  "textures": [
    {
      "sampler": 0,
      "source": 0
    }
  ]
}
