{
  "accessors": [
    {
      "bufferView": 2,
      "componentType": 5126,
      "count": 2304,
      "max": [
        -2.80111026763916,
        -1.1793744564056396,
        1.421846628189087
      ],
      "min": [
        -2.9543795585632324,
        -1.428568720817566,
        -1.421846628189087
      ],
      "type": "VEC3"
    },
    {
      "bufferView": 2,
      "byteOffset": 27648,
      "componentType": 5126,
      "count": 2304,
      "max": [
        0.9981751441955566,
        0.99991774559021,
        0.9998359680175781
      ],
      "min": [
        -0.9995483160018921,
        -0.9999089241027832,
        -0.9998360872268677
      ],
      "type": "VEC3"
    },
    {
      "bufferView": 1,
      "componentType": 5126,
      "count": 2304,
      "max": [
        0.9608991146087646,
        0.4423348307609558
      ],
      "min": [
        0.022744953632354736,
        0.014706721529364586
      ],
      "type": "VEC2"
    },
    {
      "bufferView": 0,
      "componentType": 5125,
      "count": 12336,
      "type": "SCALAR"
    },
    {
      "bufferView": 2,
      "byteOffset": 55296,
      "componentType": 5126,
      "count": 11010,
      "max": [
        0.8061182498931885,
        2.102207899093628,
        2.2268431186676025
      ],
      "min": [
        -2.922791004180908,
        -1.472364068031311,
        -1.5079705715179443
      ],
      "type": "VEC3"
    },
    {
      "bufferView": 2,
      "byteOffset": 187416,
      "componentType": 5126,
      "count": 11010,
      "max": [
        0.9999969005584717,
        0.9995520710945129,
        0.9999383687973022
      ],
      "min": [
        -0.9999892711639404,
        -0.9999999403953552,
        -0.9999383687973022
      ],
      "type": "VEC3"
    },
    {
      "bufferView": 1,
      "byteOffset": 18432,
      "componentType": 5126,
      "count": 11010,
      "max": [
        0.9954594373703003,
        0.9996575713157654
      ],
      "min": [
        0.003004610538482666,
        0.01853814721107483
      ],
      "type": "VEC2"
    },
    {
      "bufferView": 0,
      "byteOffset": 49344,
      "componentType": 5125,
      "count": 62280,
      "type": "SCALAR"
    },
    {
      "bufferView": 2,
      "byteOffset": 319536,
      "componentType": 5126,
      "count": 804,
      "max": [
        1.0000009536743164,
        0.9999980926513672,
        0.9999991655349731
      ],
      "min": [
        -1.0,
        -1.0000019073486328,
        -4.91603946685791
      ],
      "type": "VEC3"
    },
    {
      "bufferView": 2,
      "byteOffset": 329184,
      "componentType": 5126,
      "count": 804,
      "max": [
        1.0,
        1.0,
        1.0
      ],
      "min": [
        -1.0,
        -1.0,
        -1.0
      ],
      "type": "VEC3"
    },
    {
      "bufferView": 1,
      "byteOffset": 106512,
      "componentType": 5126,
      "count": 804,
      "max": [
        0.9626632928848267,
        0.993312656879425
      ],
      "min": [
        0.03020644187927246,
        0.42227375507354736
      ],
      "type": "VEC2"
    },
    {
      "bufferView": 0,
      "byteOffset": 298464,
      "componentType": 5125,
      "count": 4560,
      "type": "SCALAR"
    }
  ],
  "asset": {
    "extras": {
      "author": "zz062050x (https://sketchfab.com/miss86615)",
      "license": "CC-BY-4.0 (http://creativecommons.org/licenses/by/4.0/)",
      "source": "https://sketchfab.com/3d-models/cat-655edd88cfa74d2cafc13c7aa387d137",
      "title": "Cat"
    },
    "generator": "Sketchfab-12.68.0",
    "version": "2.0"
  },
  "bufferViews": [
    {
      "buffer": 0,
      "byteLength": 316704,
      "name": "floatBufferViews",
      "target": 34963
    },
    {
      "buffer": 0,
      "byteLength": 112944,
      "byteOffset": 316704,
      "byteStride": 8,
      "name": "floatBufferViews",
      "target": 34962
    },
    {
      "buffer": 0,
      "byteLength": 338832,
      "byteOffset": 429648,
      "byteStride": 12,
      "name": "floatBufferViews",
      "target": 34962
    }
  ],
  "buffers": [
    {
      "byteLength": 768480,
      "uri": "scene.bin"
    }
  ],
  "images": [
    {
      "uri": "textures/aiStandardSurface2_baseColor.png"
    },
    {
      "uri": "textures/aiStandardSurface1_baseColor.png"
    }
  ],
  "materials": [
    {
      "doubleSided": true,
      "name": "aiStandardSurface2",
      "pbrMetallicRoughness": {
        "baseColorTexture": {
          "index": 0
        },
        "metallicFactor": 0.0,
        "roughnessFactor": 0.6
      }
    },
    {
      "doubleSided": true,
      "name": "aiStandardSurface1",
      "pbrMetallicRoughness": {
        "baseColorTexture": {
          "index": 1
        },
        "metallicFactor": 0.0,
        "roughnessFactor": 0.6
      }
    }
  ],
  "meshes": [
    {
      "name": "feet_aiStandardSurface2_0",
      "primitives": [
        {
          "attributes": {
            "NORMAL": 1,
            "POSITION": 0,
            "TEXCOORD_0": 2
          },
          "indices": 3,
          "material": 0,
          "mode": 4
        }
      ]
    },
    {
      "name": "body_aiStandardSurface1_0",
      "primitives": [
        {
          "attributes": {
            "NORMAL": 5,
            "POSITION": 4,
            "TEXCOORD_0": 6
          },
          "indices": 7,
          "material": 1,
          "mode": 4
        }
      ]
    },
    {
      "name": "Eyes_aiStandardSurface2_0",
      "primitives": [
        {
          "attributes": {
            "NORMAL": 9,
            "POSITION": 8,
            "TEXCOORD_0": 10
          },
          "indices": 11,
          "material": 0,
          "mode": 4
        }
      ]
    }
  ],
  "nodes": [
    {
      "children": [
        1
      ],
      "matrix": [
        1.0,
        -7.039182604862136e-17,
        -6.12354660632514e-17,
        0.0,
        -6.122921257782049e-17,
        8.891159086510392e-05,
        -1.0,
        0.0,
        7.039727220577442e-17,
        1.0,
        8.891159086510392e-05,
        0.0,
        0.0,
        3.195942917955109e-05,
        -2.7999720259685994e-05,
        1.0
      ],
      "name": "Sketchfab_model"
    },
    {
      "children": [
        2
      ],
      "matrix": [
        1.0,
        0.0,
        0.0,
        0.0,
        0.0,
        0.0,
        1.0,
        0.0,
        0.0,
        -1.0,
        0.0,
        0.0,
        0.0,
        0.0,
        0.0,
        1.0
      ],
      "name": "e744c698d4af4e5ca2c975d1ef9568e6.fbx"
    },
    {
      "children": [
        3,
        5,
        7
      ],
      "name": "RootNode"
    },
    {
      "children": [
        4
      ],
      "name": "feet"
    },
    {
      "mesh": 0,
      "name": "feet_aiStandardSurface2_0"
    },
    {
      "children": [
        6
      ],
      "name": "body"
    },
    {
      "mesh": 1,
      "name": "body_aiStandardSurface1_0"
    },
    {
      "children": [
        8
      ],
      "matrix": [
        2.611139202077971e-17,
        0.11759525537490845,
        0.0,
        0.0,
        -0.11759525537490845,
        2.611139202077971e-17,
        0.0,
        0.0,
        0.0,
        0.0,
        0.11759525537490845,
        0.0,
        -0.7873438596725464,
        1.2306853532791138,
        0.23025386035442352,
        1.0
      ],
      "name": "Eyes"
    },
    {
      "mesh": 2,
      "name": "Eyes_aiStandardSurface2_0"
    }
  ],
  "samplers": [
    {
      "magFilter": 9729,
      "minFilter": 9987,
      "wrapS": 10497,
      "wrapT": 10497
    }
  ],
  "scene": 0,
  "scenes": [
    {
      "name": "Sketchfab_Scene",
      "nodes": [
        0
      ]
    }
  ],
  "textures": [
    {
      "sampler": 0,
      "source": 0
    },
    {
      "sampler": 0,
      "source": 1
    }
  ]
}
